<?xml version="1.0" encoding="UTF-8" standalone="no"?>
<!DOCTYPE svg PUBLIC "-//W3C//DTD SVG 1.1//EN"
 "http://www.w3.org/Graphics/SVG/1.1/DTD/svg11.dtd">
<!-- Generated by graphviz version 2.40.1 (20161225.0304)
 -->
<!-- Title: dependencies Pages: 1 -->
<svg width="1023pt" height="211pt"
 viewBox="0.00 0.00 1023.00 211.00" xmlns="http://www.w3.org/2000/svg" xmlns:xlink="http://www.w3.org/1999/xlink">
<g id="graph0" class="graph" transform="scale(1 1) rotate(0) translate(4 207)">
<title>dependencies</title>
<polygon fill="#ffffff" stroke="transparent" points="-4,4 -4,-207 1019,-207 1019,4 -4,4"/>
<text text-anchor="start" x="486.5091" y="-42.4" font-family="sans-serif" font-weight="bold" font-size="14.00" fill="#000000">Legend</text>
<polygon fill="#ffffb3" stroke="transparent" points="273.5,-10 273.5,-30 293.5,-30 293.5,-10 273.5,-10"/>
<text text-anchor="start" x="297.129" y="-15.4" font-family="sans-serif" font-size="14.00" fill="#000000"> &#160;Declarations</text>
<polygon fill="#8dd3c7" stroke="transparent" points="386.5,-10 386.5,-30 406.5,-30 406.5,-10 386.5,-10"/>
<text text-anchor="start" x="410.2251" y="-15.4" font-family="sans-serif" font-size="14.00" fill="#000000"> &#160;Module</text>
<polygon fill="#80b1d3" stroke="transparent" points="472.5,-10 472.5,-30 492.5,-30 492.5,-10 472.5,-10"/>
<text text-anchor="start" x="496.2812" y="-15.4" font-family="sans-serif" font-size="14.00" fill="#000000"> &#160;Bootstrap</text>
<polygon fill="#fdb462" stroke="transparent" points="569.5,-10 569.5,-30 589.5,-30 589.5,-10 569.5,-10"/>
<text text-anchor="start" x="593.1732" y="-15.4" font-family="sans-serif" font-size="14.00" fill="#000000"> &#160;Providers</text>
<polygon fill="#fb8072" stroke="transparent" points="665.5,-10 665.5,-30 685.5,-30 685.5,-10 665.5,-10"/>
<text text-anchor="start" x="689.2258" y="-15.4" font-family="sans-serif" font-size="14.00" fill="#000000"> &#160;Exports</text>
<g id="clust1" class="cluster">
<title>cluster_CoreModule</title>
<polygon fill="none" stroke="#000000" stroke-dasharray="1,5" points="8,-70 8,-195 1007,-195 1007,-70 8,-70"/>
</g>
<g id="clust6" class="cluster">
<title>cluster_CoreModule_providers</title>
<polygon fill="none" stroke="#000000" points="16,-78 16,-130 999,-130 999,-78 16,-78"/>
</g>
<!-- AuthService -->
<g id="node1" class="node">
<title>AuthService</title>
<ellipse fill="#fdb462" stroke="#000000" cx="932" cy="-104" rx="59.1083" ry="18"/>
<text text-anchor="middle" x="932" y="-99.8" font-family="Times,serif" font-size="14.00" fill="#000000">AuthService</text>
</g>
<!-- CoreModule -->
<g id="node6" class="node">
<title>CoreModule</title>
<polygon fill="#8dd3c7" stroke="#000000" points="516.2619,-187 513.2619,-191 492.2619,-191 489.2619,-187 429.7381,-187 429.7381,-151 516.2619,-151 516.2619,-187"/>
<text text-anchor="middle" x="473" y="-164.8" font-family="Times,serif" font-size="14.00" fill="#000000">CoreModule</text>
</g>
<!-- AuthService&#45;&gt;CoreModule -->
<g id="edge1" class="edge">
<title>AuthService&#45;&gt;CoreModule</title>
<path fill="none" stroke="#000000" d="M932,-122.2843C932,-143.3211 932,-175 932,-175 932,-175 526.5954,-175 526.5954,-175"/>
<polygon fill="#000000" stroke="#000000" points="526.5954,-171.5001 516.5954,-175 526.5954,-178.5001 526.5954,-171.5001"/>
</g>
<!-- BusinessOperationsService -->
<g id="node2" class="node">
<title>BusinessOperationsService</title>
<ellipse fill="#fdb462" stroke="#000000" cx="738" cy="-104" rx="116.8885" ry="18"/>
<text text-anchor="middle" x="738" y="-99.8" font-family="Times,serif" font-size="14.00" fill="#000000">BusinessOperationsService</text>
</g>
<!-- BusinessOperationsService&#45;&gt;CoreModule -->
<g id="edge2" class="edge">
<title>BusinessOperationsService&#45;&gt;CoreModule</title>
<path fill="none" stroke="#000000" d="M738,-122.0225C738,-139.3734 738,-163 738,-163 738,-163 526.4626,-163 526.4626,-163"/>
<polygon fill="#000000" stroke="#000000" points="526.4627,-159.5001 516.4626,-163 526.4626,-166.5001 526.4627,-159.5001"/>
</g>
<!-- HttpRequestInterceptorService -->
<g id="node3" class="node">
<title>HttpRequestInterceptorService</title>
<ellipse fill="#fdb462" stroke="#000000" cx="473" cy="-104" rx="130.7525" ry="18"/>
<text text-anchor="middle" x="473" y="-99.8" font-family="Times,serif" font-size="14.00" fill="#000000">HttpRequestInterceptorService</text>
</g>
<!-- HttpRequestInterceptorService&#45;&gt;CoreModule -->
<g id="edge3" class="edge">
<title>HttpRequestInterceptorService&#45;&gt;CoreModule</title>
<path fill="none" stroke="#000000" d="M473,-122.1061C473,-122.1061 473,-140.991 473,-140.991"/>
<polygon fill="#000000" stroke="#000000" points="469.5001,-140.9909 473,-150.991 476.5001,-140.991 469.5001,-140.9909"/>
</g>
<!-- LoginService -->
<g id="node4" class="node">
<title>LoginService</title>
<ellipse fill="#fdb462" stroke="#000000" cx="261" cy="-104" rx="63.1209" ry="18"/>
<text text-anchor="middle" x="261" y="-99.8" font-family="Times,serif" font-size="14.00" fill="#000000">LoginService</text>
</g>
<!-- LoginService&#45;&gt;CoreModule -->
<g id="edge4" class="edge">
<title>LoginService&#45;&gt;CoreModule</title>
<path fill="none" stroke="#000000" d="M261,-122.0225C261,-139.3734 261,-163 261,-163 261,-163 419.5871,-163 419.5871,-163"/>
<polygon fill="#000000" stroke="#000000" points="419.5871,-166.5001 429.5871,-163 419.587,-159.5001 419.5871,-166.5001"/>
</g>
<!-- PageStateService -->
<g id="node5" class="node">
<title>PageStateService</title>
<ellipse fill="#fdb462" stroke="#000000" cx="102" cy="-104" rx="78.1424" ry="18"/>
<text text-anchor="middle" x="102" y="-99.8" font-family="Times,serif" font-size="14.00" fill="#000000">PageStateService</text>
</g>
<!-- PageStateService&#45;&gt;CoreModule -->
<g id="edge5" class="edge">
<title>PageStateService&#45;&gt;CoreModule</title>
<path fill="none" stroke="#000000" d="M102,-122.2843C102,-143.3211 102,-175 102,-175 102,-175 419.7155,-175 419.7155,-175"/>
<polygon fill="#000000" stroke="#000000" points="419.7155,-178.5001 429.7155,-175 419.7155,-171.5001 419.7155,-178.5001"/>
</g>
</g>
</svg>
