<?xml version="1.0" encoding="UTF-8" standalone="no"?>
<!DOCTYPE svg PUBLIC "-//W3C//DTD SVG 1.1//EN"
 "http://www.w3.org/Graphics/SVG/1.1/DTD/svg11.dtd">
<!-- Generated by graphviz version 2.40.1 (20161225.0304)
 -->
<!-- Title: dependencies Pages: 1 -->
<svg width="911pt" height="284pt"
 viewBox="0.00 0.00 911.00 284.00" xmlns="http://www.w3.org/2000/svg" xmlns:xlink="http://www.w3.org/1999/xlink">
<g id="graph0" class="graph" transform="scale(1 1) rotate(0) translate(4 280)">
<title>dependencies</title>
<polygon fill="#ffffff" stroke="transparent" points="-4,4 -4,-280 907,-280 907,4 -4,4"/>
<text text-anchor="start" x="430.5091" y="-42.4" font-family="sans-serif" font-weight="bold" font-size="14.00" fill="#000000">Legend</text>
<polygon fill="#ffffb3" stroke="transparent" points="217.5,-10 217.5,-30 237.5,-30 237.5,-10 217.5,-10"/>
<text text-anchor="start" x="241.129" y="-15.4" font-family="sans-serif" font-size="14.00" fill="#000000"> &#160;Declarations</text>
<polygon fill="#8dd3c7" stroke="transparent" points="330.5,-10 330.5,-30 350.5,-30 350.5,-10 330.5,-10"/>
<text text-anchor="start" x="354.2251" y="-15.4" font-family="sans-serif" font-size="14.00" fill="#000000"> &#160;Module</text>
<polygon fill="#80b1d3" stroke="transparent" points="416.5,-10 416.5,-30 436.5,-30 436.5,-10 416.5,-10"/>
<text text-anchor="start" x="440.2812" y="-15.4" font-family="sans-serif" font-size="14.00" fill="#000000"> &#160;Bootstrap</text>
<polygon fill="#fdb462" stroke="transparent" points="513.5,-10 513.5,-30 533.5,-30 533.5,-10 513.5,-10"/>
<text text-anchor="start" x="537.1732" y="-15.4" font-family="sans-serif" font-size="14.00" fill="#000000"> &#160;Providers</text>
<polygon fill="#fb8072" stroke="transparent" points="609.5,-10 609.5,-30 629.5,-30 629.5,-10 609.5,-10"/>
<text text-anchor="start" x="633.2258" y="-15.4" font-family="sans-serif" font-size="14.00" fill="#000000"> &#160;Exports</text>
<g id="clust1" class="cluster">
<title>cluster_AppModule</title>
<polygon fill="none" stroke="#000000" stroke-dasharray="1,5" points="8,-70 8,-268 895,-268 895,-70 8,-70"/>
</g>
<g id="clust2" class="cluster">
<title>cluster_AppModule_declarations</title>
<polygon fill="none" stroke="#000000" points="633,-78 633,-130 887,-130 887,-78 633,-78"/>
</g>
<g id="clust5" class="cluster">
<title>cluster_AppModule_imports</title>
<polygon fill="none" stroke="#000000" points="16,-78 16,-130 625,-130 625,-78 16,-78"/>
</g>
<g id="clust7" class="cluster">
<title>cluster_AppModule_bootstrap</title>
<polygon fill="none" stroke="#000000" points="374,-208 374,-260 498,-260 498,-208 374,-208"/>
</g>
<!-- AppComponent -->
<g id="node1" class="node">
<title>AppComponent</title>
<polygon fill="#ffffb3" stroke="#000000" points="878.9399,-122 773.0601,-122 773.0601,-86 878.9399,-86 878.9399,-122"/>
<text text-anchor="middle" x="826" y="-99.8" font-family="Times,serif" font-size="14.00" fill="#000000">AppComponent</text>
</g>
<!-- AppModule -->
<g id="node3" class="node">
<title>AppModule</title>
<polygon fill="#8dd3c7" stroke="#000000" points="477.6571,-187 474.6571,-191 453.6571,-191 450.6571,-187 394.3429,-187 394.3429,-151 477.6571,-151 477.6571,-187"/>
<text text-anchor="middle" x="436" y="-164.8" font-family="Times,serif" font-size="14.00" fill="#000000">AppModule</text>
</g>
<!-- AppComponent&#45;&gt;AppModule -->
<g id="edge1" class="edge">
<title>AppComponent&#45;&gt;AppModule</title>
<path fill="none" stroke="#000000" d="M826,-122.2921C826,-144.2057 826,-178 826,-178 826,-178 487.7368,-178 487.7368,-178"/>
<polygon fill="#000000" stroke="#000000" points="487.7369,-174.5001 477.7368,-178 487.7368,-181.5001 487.7369,-174.5001"/>
</g>
<!-- LoginComponent -->
<g id="node2" class="node">
<title>LoginComponent</title>
<polygon fill="#ffffb3" stroke="#000000" points="755.2758,-122 640.7242,-122 640.7242,-86 755.2758,-86 755.2758,-122"/>
<text text-anchor="middle" x="698" y="-99.8" font-family="Times,serif" font-size="14.00" fill="#000000">LoginComponent</text>
</g>
<!-- LoginComponent&#45;&gt;AppModule -->
<g id="edge2" class="edge">
<title>LoginComponent&#45;&gt;AppModule</title>
<path fill="none" stroke="#000000" d="M698,-122.1061C698,-141.3391 698,-169 698,-169 698,-169 487.8044,-169 487.8044,-169"/>
<polygon fill="#000000" stroke="#000000" points="487.8044,-165.5001 477.8044,-169 487.8044,-172.5001 487.8044,-165.5001"/>
</g>
<!-- AppComponent  -->
<g id="node9" class="node">
<title>AppComponent </title>
<polygon fill="#80b1d3" stroke="#000000" points="490.439,-252 381.561,-252 381.561,-216 490.439,-216 490.439,-252"/>
<text text-anchor="middle" x="436" y="-229.8" font-family="Times,serif" font-size="14.00" fill="#000000">AppComponent </text>
</g>
<!-- AppModule&#45;&gt;AppComponent  -->
<g id="edge8" class="edge">
<title>AppModule&#45;&gt;AppComponent </title>
<path fill="none" stroke="#000000" stroke-dasharray="1,5" d="M436,-187.1061C436,-187.1061 436,-205.991 436,-205.991"/>
<polygon fill="#000000" stroke="#000000" points="432.5001,-205.9909 436,-215.991 439.5001,-205.991 432.5001,-205.9909"/>
</g>
<!-- AdminModule -->
<g id="node4" class="node">
<title>AdminModule</title>
<polygon fill="#8dd3c7" stroke="#000000" points="617.4386,-122 614.4386,-126 593.4386,-126 590.4386,-122 518.5614,-122 518.5614,-86 617.4386,-86 617.4386,-122"/>
<text text-anchor="middle" x="568" y="-99.8" font-family="Times,serif" font-size="14.00" fill="#000000">AdminModule</text>
</g>
<!-- AdminModule&#45;&gt;AppModule -->
<g id="edge3" class="edge">
<title>AdminModule&#45;&gt;AppModule</title>
<path fill="none" stroke="#000000" d="M568,-122.027C568,-138.3976 568,-160 568,-160 568,-160 487.7656,-160 487.7656,-160"/>
<polygon fill="#000000" stroke="#000000" points="487.7657,-156.5001 477.7656,-160 487.7656,-163.5001 487.7657,-156.5001"/>
</g>
<!-- AppRoutingModule -->
<g id="node5" class="node">
<title>AppRoutingModule</title>
<polygon fill="#8dd3c7" stroke="#000000" points="500.2744,-122 497.2744,-126 476.2744,-126 473.2744,-122 371.7256,-122 371.7256,-86 500.2744,-86 500.2744,-122"/>
<text text-anchor="middle" x="436" y="-99.8" font-family="Times,serif" font-size="14.00" fill="#000000">AppRoutingModule</text>
</g>
<!-- AppRoutingModule&#45;&gt;AppModule -->
<g id="edge4" class="edge">
<title>AppRoutingModule&#45;&gt;AppModule</title>
<path fill="none" stroke="#000000" d="M436,-122.1061C436,-122.1061 436,-140.991 436,-140.991"/>
<polygon fill="#000000" stroke="#000000" points="432.5001,-140.9909 436,-150.991 439.5001,-140.991 432.5001,-140.9909"/>
</g>
<!-- CoreModule -->
<g id="node6" class="node">
<title>CoreModule</title>
<polygon fill="#8dd3c7" stroke="#000000" points="353.2619,-122 350.2619,-126 329.2619,-126 326.2619,-122 266.7381,-122 266.7381,-86 353.2619,-86 353.2619,-122"/>
<text text-anchor="middle" x="310" y="-99.8" font-family="Times,serif" font-size="14.00" fill="#000000">CoreModule</text>
</g>
<!-- CoreModule&#45;&gt;AppModule -->
<g id="edge5" class="edge">
<title>CoreModule&#45;&gt;AppModule</title>
<path fill="none" stroke="#000000" d="M310,-122.027C310,-138.3976 310,-160 310,-160 310,-160 384.0438,-160 384.0438,-160"/>
<polygon fill="#000000" stroke="#000000" points="384.0439,-163.5001 394.0438,-160 384.0438,-156.5001 384.0439,-163.5001"/>
</g>
<!-- ForecastModule -->
<g id="node7" class="node">
<title>ForecastModule</title>
<polygon fill="#8dd3c7" stroke="#000000" points="248.472,-122 245.472,-126 224.472,-126 221.472,-122 141.528,-122 141.528,-86 248.472,-86 248.472,-122"/>
<text text-anchor="middle" x="195" y="-99.8" font-family="Times,serif" font-size="14.00" fill="#000000">ForecastModule</text>
</g>
<!-- ForecastModule&#45;&gt;AppModule -->
<g id="edge6" class="edge">
<title>ForecastModule&#45;&gt;AppModule</title>
<path fill="none" stroke="#000000" d="M195,-122.1061C195,-141.3391 195,-169 195,-169 195,-169 384.2961,-169 384.2961,-169"/>
<polygon fill="#000000" stroke="#000000" points="384.2962,-172.5001 394.2961,-169 384.2961,-165.5001 384.2962,-172.5001"/>
</g>
<!-- LayoutModule -->
<g id="node8" class="node">
<title>LayoutModule</title>
<polygon fill="#8dd3c7" stroke="#000000" points="123.7078,-122 120.7078,-126 99.7078,-126 96.7078,-122 24.2922,-122 24.2922,-86 123.7078,-86 123.7078,-122"/>
<text text-anchor="middle" x="74" y="-99.8" font-family="Times,serif" font-size="14.00" fill="#000000">LayoutModule</text>
</g>
<!-- LayoutModule&#45;&gt;AppModule -->
<g id="edge7" class="edge">
<title>LayoutModule&#45;&gt;AppModule</title>
<path fill="none" stroke="#000000" d="M74,-122.2921C74,-144.2057 74,-178 74,-178 74,-178 384.1204,-178 384.1204,-178"/>
<polygon fill="#000000" stroke="#000000" points="384.1204,-181.5001 394.1204,-178 384.1203,-174.5001 384.1204,-181.5001"/>
</g>
</g>
</svg>
