<?xml version="1.0" encoding="UTF-8" standalone="no"?>
<!DOCTYPE svg PUBLIC "-//W3C//DTD SVG 1.1//EN"
 "http://www.w3.org/Graphics/SVG/1.1/DTD/svg11.dtd">
<!-- Generated by graphviz version 2.40.1 (20161225.0304)
 -->
<!-- Title: dependencies Pages: 1 -->
<svg width="3871pt" height="512pt"
 viewBox="0.00 0.00 3871.00 512.00" xmlns="http://www.w3.org/2000/svg" xmlns:xlink="http://www.w3.org/1999/xlink">
<g id="graph0" class="graph" transform="scale(1 1) rotate(0) translate(4 508)">
<title>dependencies</title>
<polygon fill="#ffffff" stroke="transparent" points="-4,4 -4,-508 3867,-508 3867,4 -4,4"/>
<text text-anchor="start" x="1910.5091" y="-42.4" font-family="sans-serif" font-weight="bold" font-size="14.00" fill="#000000">Legend</text>
<polygon fill="#ffffb3" stroke="transparent" points="1697.5,-10 1697.5,-30 1717.5,-30 1717.5,-10 1697.5,-10"/>
<text text-anchor="start" x="1721.129" y="-15.4" font-family="sans-serif" font-size="14.00" fill="#000000"> &#160;Declarations</text>
<polygon fill="#8dd3c7" stroke="transparent" points="1810.5,-10 1810.5,-30 1830.5,-30 1830.5,-10 1810.5,-10"/>
<text text-anchor="start" x="1834.2251" y="-15.4" font-family="sans-serif" font-size="14.00" fill="#000000"> &#160;Module</text>
<polygon fill="#80b1d3" stroke="transparent" points="1896.5,-10 1896.5,-30 1916.5,-30 1916.5,-10 1896.5,-10"/>
<text text-anchor="start" x="1920.2812" y="-15.4" font-family="sans-serif" font-size="14.00" fill="#000000"> &#160;Bootstrap</text>
<polygon fill="#fdb462" stroke="transparent" points="1993.5,-10 1993.5,-30 2013.5,-30 2013.5,-10 1993.5,-10"/>
<text text-anchor="start" x="2017.1732" y="-15.4" font-family="sans-serif" font-size="14.00" fill="#000000"> &#160;Providers</text>
<polygon fill="#fb8072" stroke="transparent" points="2089.5,-10 2089.5,-30 2109.5,-30 2109.5,-10 2089.5,-10"/>
<text text-anchor="start" x="2113.2258" y="-15.4" font-family="sans-serif" font-size="14.00" fill="#000000"> &#160;Exports</text>
<g id="clust1" class="cluster">
<title>cluster_AdminModule</title>
<polygon fill="none" stroke="#000000" stroke-dasharray="1,5" points="1659,-146 1659,-358 3174,-358 3174,-146 1659,-146"/>
</g>
<g id="clust2" class="cluster">
<title>cluster_AdminModule_declarations</title>
<polygon fill="none" stroke="#000000" points="1924,-230 1924,-282 3166,-282 3166,-230 1924,-230"/>
</g>
<g id="clust12" class="cluster">
<title>cluster_AdminModule_imports</title>
<polygon fill="none" stroke="#000000" points="1667,-154 1667,-282 1916,-282 1916,-154 1667,-154"/>
</g>
<g id="clust16" class="cluster">
<title>cluster_AppModule</title>
<polygon fill="none" stroke="#000000" stroke-dasharray="1,5" points="793,-298 793,-496 1193,-496 1193,-298 793,-298"/>
</g>
<g id="clust17" class="cluster">
<title>cluster_AppModule_declarations</title>
<polygon fill="none" stroke="#000000" points="931,-306 931,-358 1185,-358 1185,-306 931,-306"/>
</g>
<g id="clust20" class="cluster">
<title>cluster_AppModule_imports</title>
<polygon fill="none" stroke="#000000" points="801,-306 801,-358 923,-358 923,-306 801,-306"/>
</g>
<g id="clust22" class="cluster">
<title>cluster_AppModule_bootstrap</title>
<polygon fill="none" stroke="#000000" points="934,-436 934,-488 1058,-488 1058,-436 934,-436"/>
</g>
<g id="clust30" class="cluster">
<title>cluster_CoreModule</title>
<polygon fill="none" stroke="#000000" stroke-dasharray="1,5" points="1400,-70 1400,-138 2399,-138 2399,-70 1400,-70"/>
</g>
<g id="clust35" class="cluster">
<title>cluster_CoreModule_providers</title>
<polygon fill="none" stroke="#000000" points="1408,-78 1408,-130 2391,-130 2391,-78 1408,-78"/>
</g>
<g id="clust36" class="cluster">
<title>cluster_ForecastModule</title>
<polygon fill="none" stroke="#000000" stroke-dasharray="1,5" points="8,-222 8,-290 1651,-290 1651,-222 8,-222"/>
</g>
<g id="clust37" class="cluster">
<title>cluster_ForecastModule_declarations</title>
<polygon fill="none" stroke="#000000" points="16,-230 16,-282 1643,-282 1643,-230 16,-230"/>
</g>
<g id="clust52" class="cluster">
<title>cluster_LayoutModule</title>
<polygon fill="none" stroke="#000000" stroke-dasharray="1,5" points="3182,-146 3182,-214 3855,-214 3855,-146 3182,-146"/>
</g>
<g id="clust53" class="cluster">
<title>cluster_LayoutModule_declarations</title>
<polygon fill="none" stroke="#000000" points="3479,-154 3479,-206 3847,-206 3847,-154 3479,-154"/>
</g>
<g id="clust58" class="cluster">
<title>cluster_LayoutModule_exports</title>
<polygon fill="none" stroke="#000000" points="3190,-154 3190,-206 3471,-206 3471,-154 3190,-154"/>
</g>
<!-- AddMonthDialog -->
<g id="node1" class="node">
<title>AddMonthDialog</title>
<polygon fill="#ffffb3" stroke="#000000" points="2183.5451,-274 2068.4549,-274 2068.4549,-238 2183.5451,-238 2183.5451,-274"/>
<text text-anchor="middle" x="2126" y="-251.8" font-family="Times,serif" font-size="14.00" fill="#000000">AddMonthDialog</text>
</g>
<!-- AdminModule -->
<g id="node10" class="node">
<title>AdminModule</title>
<polygon fill="#8dd3c7" stroke="#000000" points="2175.4386,-350 2172.4386,-354 2151.4386,-354 2148.4386,-350 2076.5614,-350 2076.5614,-314 2175.4386,-314 2175.4386,-350"/>
<text text-anchor="middle" x="2126" y="-327.8" font-family="Times,serif" font-size="14.00" fill="#000000">AdminModule</text>
</g>
<!-- AddMonthDialog&#45;&gt;AdminModule -->
<g id="edge1" class="edge">
<title>AddMonthDialog&#45;&gt;AdminModule</title>
<path fill="none" stroke="#000000" d="M2126,-274.0109C2126,-274.0109 2126,-303.855 2126,-303.855"/>
<polygon fill="#000000" stroke="#000000" points="2122.5001,-303.8549 2126,-313.855 2129.5001,-303.855 2122.5001,-303.8549"/>
</g>
<!-- AddProjectDialog -->
<g id="node2" class="node">
<title>AddProjectDialog</title>
<polygon fill="#ffffb3" stroke="#000000" points="2049.8627,-274 1932.1373,-274 1932.1373,-238 2049.8627,-238 2049.8627,-274"/>
<text text-anchor="middle" x="1991" y="-251.8" font-family="Times,serif" font-size="14.00" fill="#000000">AddProjectDialog</text>
</g>
<!-- AddProjectDialog&#45;&gt;AdminModule -->
<g id="edge2" class="edge">
<title>AddProjectDialog&#45;&gt;AdminModule</title>
<path fill="none" stroke="#000000" d="M1991,-274.0348C1991,-293.5762 1991,-322 1991,-322 1991,-322 2066.4976,-322 2066.4976,-322"/>
<polygon fill="#000000" stroke="#000000" points="2066.4976,-325.5001 2076.4976,-322 2066.4975,-318.5001 2066.4976,-325.5001"/>
</g>
<!-- AddUserDialog -->
<g id="node3" class="node">
<title>AddUserDialog</title>
<polygon fill="#ffffb3" stroke="#000000" points="3158.136,-274 3053.864,-274 3053.864,-238 3158.136,-238 3158.136,-274"/>
<text text-anchor="middle" x="3106" y="-251.8" font-family="Times,serif" font-size="14.00" fill="#000000">AddUserDialog</text>
</g>
<!-- AddUserDialog&#45;&gt;AdminModule -->
<g id="edge3" class="edge">
<title>AddUserDialog&#45;&gt;AdminModule</title>
<path fill="none" stroke="#000000" d="M3106,-274.2128C3106,-300.5111 3106,-346 3106,-346 3106,-346 2185.27,-346 2185.27,-346"/>
<polygon fill="#000000" stroke="#000000" points="2185.27,-342.5001 2175.27,-346 2185.2699,-349.5001 2185.27,-342.5001"/>
</g>
<!-- AdminComponent -->
<g id="node4" class="node">
<title>AdminComponent</title>
<polygon fill="#ffffb3" stroke="#000000" points="3036.2204,-274 2915.7796,-274 2915.7796,-238 3036.2204,-238 3036.2204,-274"/>
<text text-anchor="middle" x="2976" y="-251.8" font-family="Times,serif" font-size="14.00" fill="#000000">AdminComponent</text>
</g>
<!-- AdminComponent&#45;&gt;AdminModule -->
<g id="edge4" class="edge">
<title>AdminComponent&#45;&gt;AdminModule</title>
<path fill="none" stroke="#000000" d="M2976,-274.0263C2976,-298.9773 2976,-341 2976,-341 2976,-341 2185.3736,-341 2185.3736,-341"/>
<polygon fill="#000000" stroke="#000000" points="2185.3736,-337.5001 2175.3736,-341 2185.3736,-344.5001 2185.3736,-337.5001"/>
</g>
<!-- DashboardComponent -->
<g id="node5" class="node">
<title>DashboardComponent</title>
<polygon fill="#ffffb3" stroke="#000000" points="2897.9734,-274 2756.0266,-274 2756.0266,-238 2897.9734,-238 2897.9734,-274"/>
<text text-anchor="middle" x="2827" y="-251.8" font-family="Times,serif" font-size="14.00" fill="#000000">DashboardComponent</text>
</g>
<!-- DashboardComponent&#45;&gt;AdminModule -->
<g id="edge5" class="edge">
<title>DashboardComponent&#45;&gt;AdminModule</title>
<path fill="none" stroke="#000000" d="M2827,-274.3802C2827,-298.2785 2827,-337 2827,-337 2827,-337 2185.293,-337 2185.293,-337"/>
<polygon fill="#000000" stroke="#000000" points="2185.293,-333.5001 2175.293,-337 2185.2929,-340.5001 2185.293,-333.5001"/>
</g>
<!-- MonthsComponent -->
<g id="node6" class="node">
<title>MonthsComponent</title>
<polygon fill="#ffffb3" stroke="#000000" points="2738.1123,-274 2613.8877,-274 2613.8877,-238 2738.1123,-238 2738.1123,-274"/>
<text text-anchor="middle" x="2676" y="-251.8" font-family="Times,serif" font-size="14.00" fill="#000000">MonthsComponent</text>
</g>
<!-- MonthsComponent&#45;&gt;AdminModule -->
<g id="edge6" class="edge">
<title>MonthsComponent&#45;&gt;AdminModule</title>
<path fill="none" stroke="#000000" d="M2676,-274.0109C2676,-296.4852 2676,-332 2676,-332 2676,-332 2185.2929,-332 2185.2929,-332"/>
<polygon fill="#000000" stroke="#000000" points="2185.2929,-328.5001 2175.2929,-332 2185.2928,-335.5001 2185.2929,-328.5001"/>
</g>
<!-- ProjectsComponent -->
<g id="node7" class="node">
<title>ProjectsComponent</title>
<polygon fill="#ffffb3" stroke="#000000" points="2596.4313,-274 2469.5687,-274 2469.5687,-238 2596.4313,-238 2596.4313,-274"/>
<text text-anchor="middle" x="2533" y="-251.8" font-family="Times,serif" font-size="14.00" fill="#000000">ProjectsComponent</text>
</g>
<!-- ProjectsComponent&#45;&gt;AdminModule -->
<g id="edge7" class="edge">
<title>ProjectsComponent&#45;&gt;AdminModule</title>
<path fill="none" stroke="#000000" d="M2533,-274.1686C2533,-295.498 2533,-328 2533,-328 2533,-328 2185.4993,-328 2185.4993,-328"/>
<polygon fill="#000000" stroke="#000000" points="2185.4993,-324.5001 2175.4993,-328 2185.4993,-331.5001 2185.4993,-324.5001"/>
</g>
<!-- TeamsComponent -->
<g id="node8" class="node">
<title>TeamsComponent</title>
<polygon fill="#ffffb3" stroke="#000000" points="2451.1499,-274 2332.8501,-274 2332.8501,-238 2451.1499,-238 2451.1499,-274"/>
<text text-anchor="middle" x="2392" y="-251.8" font-family="Times,serif" font-size="14.00" fill="#000000">TeamsComponent</text>
</g>
<!-- TeamsComponent&#45;&gt;AdminModule -->
<g id="edge8" class="edge">
<title>TeamsComponent&#45;&gt;AdminModule</title>
<path fill="none" stroke="#000000" d="M2392,-274.308C2392,-294.1455 2392,-323 2392,-323 2392,-323 2185.4092,-323 2185.4092,-323"/>
<polygon fill="#000000" stroke="#000000" points="2185.4092,-319.5001 2175.4092,-323 2185.4091,-326.5001 2185.4092,-319.5001"/>
</g>
<!-- UsersComponent -->
<g id="node9" class="node">
<title>UsersComponent</title>
<polygon fill="#ffffb3" stroke="#000000" points="2314.7036,-274 2201.2964,-274 2201.2964,-238 2314.7036,-238 2314.7036,-274"/>
<text text-anchor="middle" x="2258" y="-251.8" font-family="Times,serif" font-size="14.00" fill="#000000">UsersComponent</text>
</g>
<!-- UsersComponent&#45;&gt;AdminModule -->
<g id="edge9" class="edge">
<title>UsersComponent&#45;&gt;AdminModule</title>
<path fill="none" stroke="#000000" d="M2258,-274.2222C2258,-292.8285 2258,-319 2258,-319 2258,-319 2185.5275,-319 2185.5275,-319"/>
<polygon fill="#000000" stroke="#000000" points="2185.5275,-315.5001 2175.5275,-319 2185.5274,-322.5001 2185.5275,-315.5001"/>
</g>
<!-- AppModule -->
<g id="node16" class="node">
<title>AppModule</title>
<polygon fill="#8dd3c7" stroke="#000000" points="1037.6571,-415 1034.6571,-419 1013.6571,-419 1010.6571,-415 954.3429,-415 954.3429,-379 1037.6571,-379 1037.6571,-415"/>
<text text-anchor="middle" x="996" y="-392.8" font-family="Times,serif" font-size="14.00" fill="#000000">AppModule</text>
</g>
<!-- AdminModule&#45;&gt;AppModule -->
<g id="edge15" class="edge">
<title>AdminModule&#45;&gt;AppModule</title>
<path fill="none" stroke="#000000" d="M2126,-350.2479C2126,-373.0179 2126,-409 2126,-409 2126,-409 1047.8956,-409 1047.8956,-409"/>
<polygon fill="#000000" stroke="#000000" points="1047.8956,-405.5001 1037.8956,-409 1047.8956,-412.5001 1047.8956,-405.5001"/>
</g>
<!-- AppRoutingModule -->
<g id="node11" class="node">
<title>AppRoutingModule</title>
<polygon fill="#8dd3c7" stroke="#000000" points="1803.2744,-198 1800.2744,-202 1779.2744,-202 1776.2744,-198 1674.7256,-198 1674.7256,-162 1803.2744,-162 1803.2744,-198"/>
<text text-anchor="middle" x="1739" y="-175.8" font-family="Times,serif" font-size="14.00" fill="#000000">AppRoutingModule</text>
</g>
<!-- AppRoutingModule&#45;&gt;AdminModule -->
<g id="edge10" class="edge">
<title>AppRoutingModule&#45;&gt;AdminModule</title>
<path fill="none" stroke="#000000" d="M1771.1936,-198.0666C1771.1936,-240.5057 1771.1936,-343 1771.1936,-343 1771.1936,-343 2066.6657,-343 2066.6657,-343"/>
<polygon fill="#000000" stroke="#000000" points="2066.6657,-346.5001 2076.6657,-343 2066.6656,-339.5001 2066.6657,-346.5001"/>
</g>
<!-- LayoutModule -->
<g id="node13" class="node">
<title>LayoutModule</title>
<polygon fill="#8dd3c7" stroke="#000000" points="1907.7078,-274 1904.7078,-278 1883.7078,-278 1880.7078,-274 1808.2922,-274 1808.2922,-238 1907.7078,-238 1907.7078,-274"/>
<text text-anchor="middle" x="1858" y="-251.8" font-family="Times,serif" font-size="14.00" fill="#000000">LayoutModule</text>
</g>
<!-- AppRoutingModule&#45;&gt;LayoutModule -->
<g id="edge42" class="edge">
<title>AppRoutingModule&#45;&gt;LayoutModule</title>
<path fill="none" stroke="#000000" d="M1803.4638,-180C1810.4045,-180 1815.0077,-180 1815.0077,-180 1815.0077,-180 1815.0077,-227.9891 1815.0077,-227.9891"/>
<polygon fill="#000000" stroke="#000000" points="1811.5078,-227.989 1815.0077,-237.9891 1818.5078,-227.9891 1811.5078,-227.989"/>
</g>
<!-- AppRoutingModule&#45;&gt;AppModule -->
<g id="edge16" class="edge">
<title>AppRoutingModule&#45;&gt;AppModule</title>
<path fill="none" stroke="#000000" d="M1739,-198.3558C1739,-249.6908 1739,-391 1739,-391 1739,-391 1047.807,-391 1047.807,-391"/>
<polygon fill="#000000" stroke="#000000" points="1047.807,-387.5001 1037.807,-391 1047.807,-394.5001 1047.807,-387.5001"/>
</g>
<!-- ForecastModule -->
<g id="node17" class="node">
<title>ForecastModule</title>
<polygon fill="#8dd3c7" stroke="#000000" points="915.472,-350 912.472,-354 891.472,-354 888.472,-350 808.528,-350 808.528,-314 915.472,-314 915.472,-350"/>
<text text-anchor="middle" x="862" y="-327.8" font-family="Times,serif" font-size="14.00" fill="#000000">ForecastModule</text>
</g>
<!-- AppRoutingModule&#45;&gt;ForecastModule -->
<g id="edge36" class="edge">
<title>AppRoutingModule&#45;&gt;ForecastModule</title>
<path fill="none" stroke="#000000" d="M1706.8065,-198.0735C1706.8065,-231.3634 1706.8065,-299 1706.8065,-299 1706.8065,-299 879.8287,-299 879.8287,-299 879.8287,-299 879.8287,-303.9551 879.8287,-303.9551"/>
<polygon fill="#000000" stroke="#000000" points="876.3288,-303.9551 879.8287,-313.9551 883.3288,-303.9552 876.3288,-303.9551"/>
</g>
<!-- CoreModule -->
<g id="node12" class="node">
<title>CoreModule</title>
<polygon fill="#8dd3c7" stroke="#000000" points="1908.2619,-198 1905.2619,-202 1884.2619,-202 1881.2619,-198 1821.7381,-198 1821.7381,-162 1908.2619,-162 1908.2619,-198"/>
<text text-anchor="middle" x="1865" y="-175.8" font-family="Times,serif" font-size="14.00" fill="#000000">CoreModule</text>
</g>
<!-- CoreModule&#45;&gt;AdminModule -->
<g id="edge11" class="edge">
<title>CoreModule&#45;&gt;AdminModule</title>
<path fill="none" stroke="#000000" d="M1908.291,-168C1918.9272,-168 1927.3311,-168 1927.3311,-168 1927.3311,-168 1927.3311,-329 1927.3311,-329 1927.3311,-329 2066.6356,-329 2066.6356,-329"/>
<polygon fill="#000000" stroke="#000000" points="2066.6356,-332.5001 2076.6356,-329 2066.6355,-325.5001 2066.6356,-332.5001"/>
</g>
<!-- CoreModule&#45;&gt;LayoutModule -->
<g id="edge43" class="edge">
<title>CoreModule&#45;&gt;LayoutModule</title>
<path fill="none" stroke="#000000" d="M1835.95,-198.0109C1835.95,-198.0109 1835.95,-227.855 1835.95,-227.855"/>
<polygon fill="#000000" stroke="#000000" points="1832.4501,-227.8549 1835.95,-237.855 1839.4501,-227.855 1832.4501,-227.8549"/>
</g>
<!-- CoreModule&#45;&gt;AppModule -->
<g id="edge17" class="edge">
<title>CoreModule&#45;&gt;AppModule</title>
<path fill="none" stroke="#000000" d="M1908.3569,-173C1916.5394,-173 1922.5935,-173 1922.5935,-173 1922.5935,-173 1922.5935,-403 1922.5935,-403 1922.5935,-403 1047.9172,-403 1047.9172,-403"/>
<polygon fill="#000000" stroke="#000000" points="1047.9173,-399.5001 1037.9172,-403 1047.9172,-406.5001 1047.9173,-399.5001"/>
</g>
<!-- CoreModule&#45;&gt;ForecastModule -->
<g id="edge37" class="edge">
<title>CoreModule&#45;&gt;ForecastModule</title>
<path fill="none" stroke="#000000" d="M1908.6492,-178C1914.1266,-178 1917.856,-178 1917.856,-178 1917.856,-178 1917.856,-309 1917.856,-309 1917.856,-309 903.6002,-309 903.6002,-309 903.6002,-309 903.6002,-309.4878 903.6002,-309.4878"/>
<polygon fill="#000000" stroke="#000000" points="900.1005,-303.8776 903.6002,-313.8777 907.1005,-303.8778 900.1005,-303.8776"/>
</g>
<!-- LayoutModule&#45;&gt;AdminModule -->
<g id="edge12" class="edge">
<title>LayoutModule&#45;&gt;AdminModule</title>
<path fill="none" stroke="#000000" d="M1882.8019,-274.1532C1882.8019,-297.7566 1882.8019,-336 1882.8019,-336 1882.8019,-336 2066.4921,-336 2066.4921,-336"/>
<polygon fill="#000000" stroke="#000000" points="2066.4921,-339.5001 2076.4921,-336 2066.4921,-332.5001 2066.4921,-339.5001"/>
</g>
<!-- LayoutModule&#45;&gt;AppModule -->
<g id="edge19" class="edge">
<title>LayoutModule&#45;&gt;AppModule</title>
<path fill="none" stroke="#000000" d="M1858,-274.1446C1858,-312.2265 1858,-397 1858,-397 1858,-397 1047.8674,-397 1047.8674,-397"/>
<polygon fill="#000000" stroke="#000000" points="1047.8674,-393.5001 1037.8674,-397 1047.8673,-400.5001 1047.8674,-393.5001"/>
</g>
<!-- LayoutModule&#45;&gt;ForecastModule -->
<g id="edge38" class="edge">
<title>LayoutModule&#45;&gt;ForecastModule</title>
<path fill="none" stroke="#000000" d="M1833.1981,-274.1467C1833.1981,-287.7395 1833.1981,-304 1833.1981,-304 1833.1981,-304 891.7144,-304 891.7144,-304 891.7144,-304 891.7144,-304.9793 891.7144,-304.9793"/>
<polygon fill="#000000" stroke="#000000" points="888.2146,-303.793 891.7144,-313.793 895.2146,-303.7931 888.2146,-303.793"/>
</g>
<!-- FooterComponent  -->
<g id="node37" class="node">
<title>FooterComponent </title>
<polygon fill="#fb8072" stroke="#000000" points="3462.8814,-198 3341.1186,-198 3341.1186,-162 3462.8814,-162 3462.8814,-198"/>
<text text-anchor="middle" x="3402" y="-175.8" font-family="Times,serif" font-size="14.00" fill="#000000">FooterComponent </text>
</g>
<!-- LayoutModule&#45;&gt;FooterComponent  -->
<g id="edge44" class="edge">
<title>LayoutModule&#45;&gt;FooterComponent </title>
<path fill="none" stroke="#000000" stroke-dasharray="5,2" d="M1893.273,-237.9489C1893.273,-223.627 1893.273,-206 1893.273,-206 1893.273,-206 3402,-206 3402,-206 3402,-206 3402,-205.2058 3402,-205.2058"/>
<polygon fill="#000000" stroke="#000000" points="3405.5001,-208.0578 3402,-198.0579 3398.5001,-208.0579 3405.5001,-208.0578"/>
</g>
<!-- HeaderComponent  -->
<g id="node38" class="node">
<title>HeaderComponent </title>
<polygon fill="#fb8072" stroke="#000000" points="3323.7436,-198 3198.2564,-198 3198.2564,-162 3323.7436,-162 3323.7436,-198"/>
<text text-anchor="middle" x="3261" y="-175.8" font-family="Times,serif" font-size="14.00" fill="#000000">HeaderComponent </text>
</g>
<!-- LayoutModule&#45;&gt;HeaderComponent  -->
<g id="edge45" class="edge">
<title>LayoutModule&#45;&gt;HeaderComponent </title>
<path fill="none" stroke="#000000" stroke-dasharray="5,2" d="M1907.6319,-256C1911.0158,-256 1913.1184,-256 1913.1184,-256 1913.1184,-256 1913.1184,-193 1913.1184,-193 1913.1184,-193 3188.2452,-193 3188.2452,-193"/>
<polygon fill="#000000" stroke="#000000" points="3188.2452,-196.5001 3198.2452,-193 3188.2451,-189.5001 3188.2452,-196.5001"/>
</g>
<!-- AppComponent -->
<g id="node14" class="node">
<title>AppComponent</title>
<polygon fill="#ffffb3" stroke="#000000" points="1176.9399,-350 1071.0601,-350 1071.0601,-314 1176.9399,-314 1176.9399,-350"/>
<text text-anchor="middle" x="1124" y="-327.8" font-family="Times,serif" font-size="14.00" fill="#000000">AppComponent</text>
</g>
<!-- AppComponent&#45;&gt;AppModule -->
<g id="edge13" class="edge">
<title>AppComponent&#45;&gt;AppModule</title>
<path fill="none" stroke="#000000" d="M1124,-350.2396C1124,-365.5706 1124,-385 1124,-385 1124,-385 1047.912,-385 1047.912,-385"/>
<polygon fill="#000000" stroke="#000000" points="1047.912,-381.5001 1037.912,-385 1047.912,-388.5001 1047.912,-381.5001"/>
</g>
<!-- LoginComponent -->
<g id="node15" class="node">
<title>LoginComponent</title>
<polygon fill="#ffffb3" stroke="#000000" points="1053.2758,-350 938.7242,-350 938.7242,-314 1053.2758,-314 1053.2758,-350"/>
<text text-anchor="middle" x="996" y="-327.8" font-family="Times,serif" font-size="14.00" fill="#000000">LoginComponent</text>
</g>
<!-- LoginComponent&#45;&gt;AppModule -->
<g id="edge14" class="edge">
<title>LoginComponent&#45;&gt;AppModule</title>
<path fill="none" stroke="#000000" d="M996,-350.1061C996,-350.1061 996,-368.991 996,-368.991"/>
<polygon fill="#000000" stroke="#000000" points="992.5001,-368.9909 996,-378.991 999.5001,-368.991 992.5001,-368.9909"/>
</g>
<!-- AppComponent  -->
<g id="node18" class="node">
<title>AppComponent </title>
<polygon fill="#80b1d3" stroke="#000000" points="1050.439,-480 941.561,-480 941.561,-444 1050.439,-444 1050.439,-480"/>
<text text-anchor="middle" x="996" y="-457.8" font-family="Times,serif" font-size="14.00" fill="#000000">AppComponent </text>
</g>
<!-- AppModule&#45;&gt;AppComponent  -->
<g id="edge20" class="edge">
<title>AppModule&#45;&gt;AppComponent </title>
<path fill="none" stroke="#000000" stroke-dasharray="1,5" d="M996,-415.1061C996,-415.1061 996,-433.991 996,-433.991"/>
<polygon fill="#000000" stroke="#000000" points="992.5001,-433.9909 996,-443.991 999.5001,-433.991 992.5001,-433.9909"/>
</g>
<!-- ForecastModule&#45;&gt;AppModule -->
<g id="edge18" class="edge">
<title>ForecastModule&#45;&gt;AppModule</title>
<path fill="none" stroke="#000000" d="M862,-350.1061C862,-369.3391 862,-397 862,-397 862,-397 944.3361,-397 944.3361,-397"/>
<polygon fill="#000000" stroke="#000000" points="944.3361,-400.5001 954.3361,-397 944.3361,-393.5001 944.3361,-400.5001"/>
</g>
<!-- AuthService -->
<g id="node19" class="node">
<title>AuthService</title>
<ellipse fill="#fdb462" stroke="#000000" cx="2324" cy="-104" rx="59.1083" ry="18"/>
<text text-anchor="middle" x="2324" y="-99.8" font-family="Times,serif" font-size="14.00" fill="#000000">AuthService</text>
</g>
<!-- AuthService&#45;&gt;CoreModule -->
<g id="edge21" class="edge">
<title>AuthService&#45;&gt;CoreModule</title>
<path fill="none" stroke="#000000" d="M2289.6489,-119.0175C2289.6489,-143.1789 2289.6489,-188 2289.6489,-188 2289.6489,-188 1918.4493,-188 1918.4493,-188"/>
<polygon fill="#000000" stroke="#000000" points="1918.4493,-184.5001 1908.4493,-188 1918.4492,-191.5001 1918.4493,-184.5001"/>
</g>
<!-- BusinessOperationsService -->
<g id="node20" class="node">
<title>BusinessOperationsService</title>
<ellipse fill="#fdb462" stroke="#000000" cx="2130" cy="-104" rx="116.8885" ry="18"/>
<text text-anchor="middle" x="2130" y="-99.8" font-family="Times,serif" font-size="14.00" fill="#000000">BusinessOperationsService</text>
</g>
<!-- BusinessOperationsService&#45;&gt;CoreModule -->
<g id="edge22" class="edge">
<title>BusinessOperationsService&#45;&gt;CoreModule</title>
<path fill="none" stroke="#000000" d="M2031.6186,-113.687C2031.6186,-134.7822 2031.6186,-183 2031.6186,-183 2031.6186,-183 1918.3421,-183 1918.3421,-183"/>
<polygon fill="#000000" stroke="#000000" points="1918.3422,-179.5001 1908.3421,-183 1918.3421,-186.5001 1918.3422,-179.5001"/>
</g>
<!-- HttpRequestInterceptorService -->
<g id="node21" class="node">
<title>HttpRequestInterceptorService</title>
<ellipse fill="#fdb462" stroke="#000000" cx="1865" cy="-104" rx="130.7525" ry="18"/>
<text text-anchor="middle" x="1865" y="-99.8" font-family="Times,serif" font-size="14.00" fill="#000000">HttpRequestInterceptorService</text>
</g>
<!-- HttpRequestInterceptorService&#45;&gt;CoreModule -->
<g id="edge23" class="edge">
<title>HttpRequestInterceptorService&#45;&gt;CoreModule</title>
<path fill="none" stroke="#000000" d="M1886.6904,-122.0109C1886.6904,-122.0109 1886.6904,-151.855 1886.6904,-151.855"/>
<polygon fill="#000000" stroke="#000000" points="1883.1905,-151.8549 1886.6904,-161.855 1890.1905,-151.855 1883.1905,-151.8549"/>
</g>
<!-- LoginService -->
<g id="node22" class="node">
<title>LoginService</title>
<ellipse fill="#fdb462" stroke="#000000" cx="1653" cy="-104" rx="63.1209" ry="18"/>
<text text-anchor="middle" x="1653" y="-99.8" font-family="Times,serif" font-size="14.00" fill="#000000">LoginService</text>
</g>
<!-- LoginService&#45;&gt;CoreModule -->
<g id="edge24" class="edge">
<title>LoginService&#45;&gt;CoreModule</title>
<path fill="none" stroke="#000000" d="M1695.3367,-117.3855C1695.3367,-126.1543 1695.3367,-136 1695.3367,-136 1695.3367,-136 1865,-136 1865,-136 1865,-136 1865,-151.8495 1865,-151.8495"/>
<polygon fill="#000000" stroke="#000000" points="1861.5001,-151.8494 1865,-161.8495 1868.5001,-151.8495 1861.5001,-151.8494"/>
</g>
<!-- PageStateService -->
<g id="node23" class="node">
<title>PageStateService</title>
<ellipse fill="#fdb462" stroke="#000000" cx="1494" cy="-104" rx="78.1424" ry="18"/>
<text text-anchor="middle" x="1494" y="-99.8" font-family="Times,serif" font-size="14.00" fill="#000000">PageStateService</text>
</g>
<!-- PageStateService&#45;&gt;CoreModule -->
<g id="edge25" class="edge">
<title>PageStateService&#45;&gt;CoreModule</title>
<path fill="none" stroke="#000000" d="M1516.5706,-121.2695C1516.5706,-133.9597 1516.5706,-149 1516.5706,-149 1516.5706,-149 1843.3096,-149 1843.3096,-149 1843.3096,-149 1843.3096,-151.9672 1843.3096,-151.9672"/>
<polygon fill="#000000" stroke="#000000" points="1839.8097,-151.9671 1843.3096,-161.9672 1846.8097,-151.9672 1839.8097,-151.9671"/>
</g>
<!-- CSVExportDialog -->
<g id="node24" class="node">
<title>CSVExportDialog</title>
<polygon fill="#ffffb3" stroke="#000000" points="1234.9328,-274 1115.0672,-274 1115.0672,-238 1234.9328,-238 1234.9328,-274"/>
<text text-anchor="middle" x="1175" y="-251.8" font-family="Times,serif" font-size="14.00" fill="#000000">CSVExportDialog</text>
</g>
<!-- CSVExportDialog&#45;&gt;ForecastModule -->
<g id="edge26" class="edge">
<title>CSVExportDialog&#45;&gt;ForecastModule</title>
<path fill="none" stroke="#000000" d="M1146.0017,-274.207C1146.0017,-279.5549 1146.0017,-284 1146.0017,-284 1146.0017,-284 844.1713,-284 844.1713,-284 844.1713,-284 844.1713,-303.8533 844.1713,-303.8533"/>
<polygon fill="#000000" stroke="#000000" points="840.6714,-303.8532 844.1713,-313.8533 847.6714,-303.8533 840.6714,-303.8532"/>
</g>
<!-- FcEntryComponent -->
<g id="node25" class="node">
<title>FcEntryComponent</title>
<polygon fill="#ffffb3" stroke="#000000" points="1097.4341,-274 970.5659,-274 970.5659,-238 1097.4341,-238 1097.4341,-274"/>
<text text-anchor="middle" x="1034" y="-251.8" font-family="Times,serif" font-size="14.00" fill="#000000">FcEntryComponent</text>
</g>
<!-- FcEntryComponent&#45;&gt;ForecastModule -->
<g id="edge27" class="edge">
<title>FcEntryComponent&#45;&gt;ForecastModule</title>
<path fill="none" stroke="#000000" d="M1012.0856,-274.1223C1012.0856,-276.9729 1012.0856,-279 1012.0856,-279 1012.0856,-279 832.2856,-279 832.2856,-279 832.2856,-279 832.2856,-303.7604 832.2856,-303.7604"/>
<polygon fill="#000000" stroke="#000000" points="828.7857,-303.7604 832.2856,-313.7604 835.7857,-303.7604 828.7857,-303.7604"/>
</g>
<!-- FcEntrySummaryComponent -->
<g id="node26" class="node">
<title>FcEntrySummaryComponent</title>
<polygon fill="#ffffb3" stroke="#000000" points="952.3724,-274 771.6276,-274 771.6276,-238 952.3724,-238 952.3724,-274"/>
<text text-anchor="middle" x="862" y="-251.8" font-family="Times,serif" font-size="14.00" fill="#000000">FcEntrySummaryComponent</text>
</g>
<!-- FcEntrySummaryComponent&#45;&gt;ForecastModule -->
<g id="edge28" class="edge">
<title>FcEntrySummaryComponent&#45;&gt;ForecastModule</title>
<path fill="none" stroke="#000000" d="M820.3998,-274.0109C820.3998,-274.0109 820.3998,-303.855 820.3998,-303.855"/>
<polygon fill="#000000" stroke="#000000" points="816.8999,-303.8549 820.3998,-313.855 823.8999,-303.855 816.8999,-303.8549"/>
</g>
<!-- FcProjectComponent -->
<g id="node27" class="node">
<title>FcProjectComponent</title>
<polygon fill="#ffffb3" stroke="#000000" points="753.4832,-274 618.5168,-274 618.5168,-238 753.4832,-238 753.4832,-274"/>
<text text-anchor="middle" x="686" y="-251.8" font-family="Times,serif" font-size="14.00" fill="#000000">FcProjectComponent</text>
</g>
<!-- FcProjectComponent&#45;&gt;ForecastModule -->
<g id="edge29" class="edge">
<title>FcProjectComponent&#45;&gt;ForecastModule</title>
<path fill="none" stroke="#000000" d="M686,-274.1686C686,-293.0898 686,-320 686,-320 686,-320 798.2379,-320 798.2379,-320"/>
<polygon fill="#000000" stroke="#000000" points="798.2379,-323.5001 808.2379,-320 798.2378,-316.5001 798.2379,-323.5001"/>
</g>
<!-- ForecastComponent -->
<g id="node28" class="node">
<title>ForecastComponent</title>
<polygon fill="#ffffb3" stroke="#000000" points="600.2548,-274 471.7452,-274 471.7452,-238 600.2548,-238 600.2548,-274"/>
<text text-anchor="middle" x="536" y="-251.8" font-family="Times,serif" font-size="14.00" fill="#000000">ForecastComponent</text>
</g>
<!-- ForecastComponent&#45;&gt;ForecastModule -->
<g id="edge30" class="edge">
<title>ForecastComponent&#45;&gt;ForecastModule</title>
<path fill="none" stroke="#000000" d="M536,-274.0267C536,-294.7672 536,-326 536,-326 536,-326 798.1677,-326 798.1677,-326"/>
<polygon fill="#000000" stroke="#000000" points="798.1678,-329.5001 808.1677,-326 798.1677,-322.5001 798.1678,-329.5001"/>
</g>
<!-- IndividualComponent -->
<g id="node29" class="node">
<title>IndividualComponent</title>
<polygon fill="#ffffb3" stroke="#000000" points="453.3795,-274 314.6205,-274 314.6205,-238 453.3795,-238 453.3795,-274"/>
<text text-anchor="middle" x="384" y="-251.8" font-family="Times,serif" font-size="14.00" fill="#000000">IndividualComponent</text>
</g>
<!-- IndividualComponent&#45;&gt;ForecastModule -->
<g id="edge31" class="edge">
<title>IndividualComponent&#45;&gt;ForecastModule</title>
<path fill="none" stroke="#000000" d="M384,-274.0109C384,-296.4852 384,-332 384,-332 384,-332 798.0965,-332 798.0965,-332"/>
<polygon fill="#000000" stroke="#000000" points="798.0965,-335.5001 808.0965,-332 798.0965,-328.5001 798.0965,-335.5001"/>
</g>
<!-- RemoveProjectDialog -->
<g id="node30" class="node">
<title>RemoveProjectDialog</title>
<polygon fill="#ffffb3" stroke="#000000" points="296.413,-274 155.587,-274 155.587,-238 296.413,-238 296.413,-274"/>
<text text-anchor="middle" x="226" y="-251.8" font-family="Times,serif" font-size="14.00" fill="#000000">RemoveProjectDialog</text>
</g>
<!-- RemoveProjectDialog&#45;&gt;ForecastModule -->
<g id="edge32" class="edge">
<title>RemoveProjectDialog&#45;&gt;ForecastModule</title>
<path fill="none" stroke="#000000" d="M226,-274.1985C226,-298.3563 226,-338 226,-338 226,-338 798.3231,-338 798.3231,-338"/>
<polygon fill="#000000" stroke="#000000" points="798.3232,-341.5001 808.3231,-338 798.3231,-334.5001 798.3232,-341.5001"/>
</g>
<!-- TeamComponent -->
<g id="node31" class="node">
<title>TeamComponent</title>
<polygon fill="#ffffb3" stroke="#000000" points="137.705,-274 24.295,-274 24.295,-238 137.705,-238 137.705,-274"/>
<text text-anchor="middle" x="81" y="-251.8" font-family="Times,serif" font-size="14.00" fill="#000000">TeamComponent</text>
</g>
<!-- TeamComponent&#45;&gt;ForecastModule -->
<g id="edge33" class="edge">
<title>TeamComponent&#45;&gt;ForecastModule</title>
<path fill="none" stroke="#000000" d="M81,-274.2337C81,-300.0094 81,-344 81,-344 81,-344 798.3187,-344 798.3187,-344"/>
<polygon fill="#000000" stroke="#000000" points="798.3187,-347.5001 808.3187,-344 798.3187,-340.5001 798.3187,-347.5001"/>
</g>
<!-- TeamleadMonthComponent -->
<g id="node32" class="node">
<title>TeamleadMonthComponent</title>
<polygon fill="#ffffb3" stroke="#000000" points="1634.8599,-274 1461.1401,-274 1461.1401,-238 1634.8599,-238 1634.8599,-274"/>
<text text-anchor="middle" x="1548" y="-251.8" font-family="Times,serif" font-size="14.00" fill="#000000">TeamleadMonthComponent</text>
</g>
<!-- TeamleadMonthComponent&#45;&gt;ForecastModule -->
<g id="edge34" class="edge">
<title>TeamleadMonthComponent&#45;&gt;ForecastModule</title>
<path fill="none" stroke="#000000" d="M1548,-274.1097C1548,-283.897 1548,-294 1548,-294 1548,-294 867.9429,-294 867.9429,-294 867.9429,-294 867.9429,-303.8903 867.9429,-303.8903"/>
<polygon fill="#000000" stroke="#000000" points="864.443,-303.8903 867.9429,-313.8903 871.443,-303.8904 864.443,-303.8903"/>
</g>
<!-- TeamleadSummaryComponent -->
<g id="node33" class="node">
<title>TeamleadSummaryComponent</title>
<polygon fill="#ffffb3" stroke="#000000" points="1443.4636,-274 1252.5364,-274 1252.5364,-238 1443.4636,-238 1443.4636,-274"/>
<text text-anchor="middle" x="1348" y="-251.8" font-family="Times,serif" font-size="14.00" fill="#000000">TeamleadSummaryComponent</text>
</g>
<!-- TeamleadSummaryComponent&#45;&gt;ForecastModule -->
<g id="edge35" class="edge">
<title>TeamleadSummaryComponent&#45;&gt;ForecastModule</title>
<path fill="none" stroke="#000000" d="M1348,-274.0449C1348,-281.749 1348,-289 1348,-289 1348,-289 856.0571,-289 856.0571,-289 856.0571,-289 856.0571,-303.5146 856.0571,-303.5146"/>
<polygon fill="#000000" stroke="#000000" points="852.5572,-303.5145 856.0571,-313.5146 859.5572,-303.5146 852.5572,-303.5145"/>
</g>
<!-- FooterComponent -->
<g id="node34" class="node">
<title>FooterComponent</title>
<polygon fill="#ffffb3" stroke="#000000" points="3604.8809,-198 3487.1191,-198 3487.1191,-162 3604.8809,-162 3604.8809,-198"/>
<text text-anchor="middle" x="3546" y="-175.8" font-family="Times,serif" font-size="14.00" fill="#000000">FooterComponent</text>
</g>
<!-- FooterComponent&#45;&gt;LayoutModule -->
<g id="edge39" class="edge">
<title>FooterComponent&#45;&gt;LayoutModule</title>
<path fill="none" stroke="#000000" d="M3546,-198.1944C3546,-206.2782 3546,-214 3546,-214 3546,-214 1850.2807,-214 1850.2807,-214 1850.2807,-214 1850.2807,-227.9445 1850.2807,-227.9445"/>
<polygon fill="#000000" stroke="#000000" points="1846.7808,-227.9444 1850.2807,-237.9445 1853.7808,-227.9445 1846.7808,-227.9444"/>
</g>
<!-- GetStarted -->
<g id="node35" class="node">
<title>GetStarted</title>
<polygon fill="#ffffb3" stroke="#000000" points="3838.8655,-198 3763.1345,-198 3763.1345,-162 3838.8655,-162 3838.8655,-198"/>
<text text-anchor="middle" x="3801" y="-175.8" font-family="Times,serif" font-size="14.00" fill="#000000">GetStarted</text>
</g>
<!-- GetStarted&#45;&gt;LayoutModule -->
<g id="edge40" class="edge">
<title>GetStarted&#45;&gt;LayoutModule</title>
<path fill="none" stroke="#000000" d="M3801,-198.0511C3801,-212.373 3801,-230 3801,-230 3801,-230 1878.9423,-230 1878.9423,-230 1878.9423,-230 1878.9423,-230.7942 1878.9423,-230.7942"/>
<polygon fill="#000000" stroke="#000000" points="1875.4424,-227.9421 1878.9423,-237.9421 1882.4424,-227.9422 1875.4424,-227.9421"/>
</g>
<!-- HeaderComponent -->
<g id="node36" class="node">
<title>HeaderComponent</title>
<polygon fill="#ffffb3" stroke="#000000" points="3744.7437,-198 3623.2563,-198 3623.2563,-162 3744.7437,-162 3744.7437,-198"/>
<text text-anchor="middle" x="3684" y="-175.8" font-family="Times,serif" font-size="14.00" fill="#000000">HeaderComponent</text>
</g>
<!-- HeaderComponent&#45;&gt;LayoutModule -->
<g id="edge41" class="edge">
<title>HeaderComponent&#45;&gt;LayoutModule</title>
<path fill="none" stroke="#000000" d="M3684,-198.0555C3684,-209.439 3684,-222 3684,-222 3684,-222 1864.6115,-222 1864.6115,-222 1864.6115,-222 1864.6115,-227.8056 1864.6115,-227.8056"/>
<polygon fill="#000000" stroke="#000000" points="1861.1116,-227.8055 1864.6115,-237.8056 1868.1116,-227.8056 1861.1116,-227.8055"/>
</g>
</g>
</svg>
